<?xml version="1.0" encoding="UTF-8" standalone="no"?><!DOCTYPE svg PUBLIC "-//W3C//DTD SVG 1.1//EN" "http://www.w3.org/Graphics/SVG/1.1/DTD/svg11.dtd"><svg width="10900px" height="10900px" version="1.1" xmlns="http://www.w3.org/2000/svg" xmlns:xlink="http://www.w3.org/1999/xlink" xml:space="preserve" xmlns:serif="http://www.serif.com/" style="fill-rule:evenodd;clip-rule:evenodd;stroke-linejoin:round;stroke-miterlimit:2;"><g><path d="M5441.74,189.562C7798.97,191.405 9389.88,1445.88 10222.5,3254.32C10530.2,3922.57 10815.8,4671.02 10701.9,5449.88C10364.1,7756.97 9882.18,8769.03 8244.63,9900.91C7454.98,10446.6 6675.2,10711.1 5441.74,10710.2C3622.52,10707.4 2230.52,9790.31 1125.09,8454.72C462.552,7654.66 108.423,6564.25 181.517,5449.88C299.867,3646.05 1170.99,2187.87 2454.41,1120.51C3321.3,399.716 4332.53,188.64 5441.74,189.562ZM1178.28,5417.62C1015.13,7294.26 2372.19,8755.2 4070.39,9485.21C4489.96,9665.87 4966.13,9713.8 5447.82,9713.8C6623.95,9713.8 7616.75,9277.82 8437.73,8555.19C9356.42,7745.91 9718.38,6623.24 9718.38,5443.43C9718.38,4679.31 9489.8,3977.87 9165.44,3341.88C8475.34,1989.7 7333.96,1154.61 5601.38,1141.71C4492.27,1134.34 3744.1,1372.14 2643.92,2168.52C1735.74,2826.63 1288.24,4153.92 1178.28,5417.62ZM1612.87,5470.15C1711.68,4333.66 2071.71,3121.59 2888.27,2530.76C3900.79,1797.06 4586.84,1577.69 5607.74,1577.69C7026.01,1577.69 8160.29,2333.51 8773.43,3534.52C9068.38,4112.45 9282.13,4749.36 9282.13,5444.35C9282.13,6495.12 8975.1,7503.49 8156.24,8224.28C7412.22,8879.64 6513.9,9277.82 5448.1,9277.82C5031.57,9277.82 4618.27,9245.56 4255.38,9089.79C2730.56,8434.44 1466.32,7155.08 1612.87,5470.15ZM3486.2,4265.45C3486.2,4697.74 3784.01,5048 4269.3,5048C4701.5,5048 5052.4,4697.74 5052.4,4265.45C5052.4,3833.16 4691.54,3481.98 4269.3,3512.4C3838.2,3542.82 3486.2,3833.16 3486.2,4265.45ZM3486.2,6622.32C3486.2,7054.61 3837.1,7405.79 4269.3,7405.79C4701.5,7405.79 5052.4,7123.74 5052.4,6692.37C5052.4,6260.08 4701.5,5839.77 4269.3,5839.77C3837.1,5839.77 3486.2,6108.91 3486.2,6622.32ZM5843.71,6622.32C5843.71,7054.61 6046.03,7457.41 6626.81,7405.79C7179.29,7356.94 7409.91,7054.61 7409.91,6622.32C7409.91,6190.03 7157.82,5839.77 6626.81,5839.77C6194.61,5839.77 5843.71,6190.03 5843.71,6622.32ZM5843.71,4265.45C5886.01,4778.86 6194.61,5048 6626.81,5048C7059.01,5048 7380.14,4695.9 7409.91,4265.45C7449.27,3694.9 7059.01,3481.98 6626.81,3481.98C6194.61,3481.98 5808.13,3834.08 5843.71,4265.45Z" style="fill:rgb(193,123,91);"/></g></svg>